<svg xmlns="http://www.w3.org/2000/svg" width="17.489" height="21.497" viewBox="0 0 17.489 21.497">
    <defs>
        <clipPath id="yf0pomihxa">
            <path data-name="사각형 4688" style="fill:none" d="M0 0h17.489v21.497H0z"/>
        </clipPath>
    </defs>
    <g data-name="그룹 3185">
        <g data-name="그룹 3153" style="clip-path:url(#yf0pomihxa)">
            <path data-name="패스 9762" d="M14.608 9.372a4.882 4.882 0 0 1 2.326-4.1 5 5 0 0 0-3.941-2.13c-1.658-.173-3.264.992-4.108.992-.863 0-2.162-.974-3.562-.946A5.252 5.252 0 0 0 .906 5.881C-1 9.188.421 14.044 2.252 16.717c.914 1.309 1.983 2.771 3.383 2.718 1.369-.056 1.882-.873 3.534-.873 1.636 0 2.116.873 3.543.84 1.47-.023 2.4-1.314 3.279-2.635a10.676 10.676 0 0 0 1.5-3.053 4.722 4.722 0 0 1-2.88-4.342" transform="translate(0 2.061)" style="fill:#fff"/>
            <path data-name="패스 9763" d="M8.459 3.445A4.815 4.815 0 0 0 9.559 0a4.886 4.886 0 0 0-3.166 1.638 4.577 4.577 0 0 0-1.13 3.319 4.044 4.044 0 0 0 3.2-1.512" transform="translate(3.453)" style="fill:#fff"/>
        </g>
    </g>
</svg>
