<svg xmlns="http://www.w3.org/2000/svg" width="28.435" height="26.147" viewBox="0 0 28.435 26.147">
    <defs>
        <clipPath id="7oum7dtgaa">
            <path data-name="사각형 5346" style="fill:none" d="M0 0h23.453v20.998H0z"/>
        </clipPath>
        <clipPath id="perkhdse8b">
            <path data-name="사각형 5349" style="fill:none" d="M0 0h28.435v26.147H0z"/>
        </clipPath>
    </defs>
    <g data-name="그룹 3643">
        <g data-name="그룹 3558">
            <g data-name="그룹 3557" style="clip-path:url(#7oum7dtgaa)" transform="translate(2.53 2.572)">
                <path data-name="패스 10328" d="M21.2 2.806c.008.008.017.008.025.017a10.292 10.292 0 0 1-5.945 18.215z" transform="translate(-2.506 -.46)" style="fill:#ffd05a"/>
                <path data-name="패스 10329" d="M23.2 10.937c0 5.432-4.667 9.836-10.425 9.836S2.35 16.373 2.35 10.937 7.013 1.1 12.771 1.1 23.2 5.5 23.2 10.937" transform="translate(-.385 -.18)" style="fill:#ffd05a"/>
            </g>
        </g>
        <g data-name="그룹 3560">
            <g data-name="그룹 3559" style="clip-path:url(#perkhdse8b)">
                <path data-name="패스 10330" d="M8.479 6.471h3.389a4.56 4.56 0 0 1 4.706 4.407 4.611 4.611 0 0 1-.018.589 4.55 4.55 0 0 1-4.687 4.982h-3.39zm3.421 8.007c1.673 0 2.7-1.082 2.7-3.012s-1.027-3.023-2.7-3.023h-1.474v6.036z" transform="translate(1.139 1.511)" style="fill:#313131"/>
                <path data-name="사각형 5347" transform="translate(12.502 6.069)" style="fill:#313131" d="M0 0h1.141v2.165H0z"/>
                <path data-name="사각형 5348" transform="translate(12.323 16.321)" style="fill:#313131" d="M0 0h1.141v3.818H0z"/>
                <path data-name="패스 10331" d="M13.146.326h-.063a10.5 10.5 0 1 0 0 20.343h.059A10.175 10.175 0 1 0 13.414.322h-.271M1.961 10.5a8.582 8.582 0 1 1 8.583 8.582A8.582 8.582 0 0 1 1.961 10.5m15.813 7.587a10.455 10.455 0 0 0 .394-14.782q-.192-.2-.394-.394a8.87 8.87 0 0 1 0 15.175" transform="translate(2.53 2.572)" style="fill:#313131"/>
            </g>
        </g>
    </g>
</svg>
