<svg xmlns="http://www.w3.org/2000/svg" width="23.811" height="15.333" viewBox="0 0 23.811 15.333">
    <g data-name="그룹 3819">
        <path data-name="패스 10558" d="M15.448 5.393a.313.313 0 0 1-.06.091l-9.155 9.154a.312.312 0 0 1-.156.142l-4.544 1.273a.224.224 0 0 1-.031.009h-.023a.348.348 0 0 1-.094.015.3.3 0 0 1-.093-.013h-.027a.308.308 0 0 1-.079-.046.29.29 0 0 1-.037-.028.29.29 0 0 1-.028-.037.312.312 0 0 1-.046-.079.079.079 0 0 1 0-.007v-.02a.323.323 0 0 1-.013-.092.362.362 0 0 1 .015-.094v-.024c0-.01 0-.021.009-.031l1.271-4.546a.313.313 0 0 1 .143-.16l9.015-9.015c.013-.015.029-.027.042-.042l.1-.1.016-.011a2.63 2.63 0 0 1 3.778 3.655zm-1.24.364L13.021 4.57l-7.755 7.755.006.006.778 1.584zm-12.332 9.5.914-.256-.658-.658-.256.913zm.454-1.617 1.17 1.168 2.008-.563s-.848-1.762-.85-1.763l-1.763-.85-.565 2.008zm2.476-1.773.006.006 7.756-7.756-1.187-1.188-8.158 8.159zm8.672-10.211a1.992 1.992 0 0 0-1.473.654l-.169.168L14.662 5.3l.173-.173a2 2 0 0 0-1.355-3.473z" transform="translate(7.558 -.875)" style="stroke:#313131;fill:#313131;stroke-width:.25px;fill-rule:evenodd"/>
        <path data-name="선 453" transform="translate(.4 14.913)" style="fill:none;stroke-linecap:round;stroke-width:.8px;stroke:#313131" d="M8.482 0H0"/>
    </g>
</svg>
