<svg id="camera" xmlns="http://www.w3.org/2000/svg" width="23.828" height="23.492" viewBox="0 0 23.828 23.492">
  <path id="패스_11212" data-name="패스 11212" d="M1030.373,802.688h-3.9l-2.98-3.574a.75.75,0,0,0-.576-.269h-5.875a.749.749,0,0,0-.6.3l-2.7,3.547h-3.875a1.667,1.667,0,0,0-1.666,1.665v16.318a1.667,1.667,0,0,0,1.666,1.666h20.5a1.667,1.667,0,0,0,1.666-1.666V804.353A1.667,1.667,0,0,0,1030.373,802.688Zm-12.956-2.343h5.151l1.954,2.343h-8.885Zm13.122,20.326a.166.166,0,0,1-.166.166h-20.5a.166.166,0,0,1-.166-.166V804.353a.165.165,0,0,1,.166-.165h20.5a.165.165,0,0,1,.166.165Z" transform="translate(-1008.211 -798.845)"/>
  <path id="패스_11213" data-name="패스 11213" d="M1020.125,806.64a5.872,5.872,0,1,0,5.873,5.872A5.879,5.879,0,0,0,1020.125,806.64Zm0,10.245a4.372,4.372,0,1,1,4.373-4.373A4.378,4.378,0,0,1,1020.125,816.885Z" transform="translate(-1008.211 -798.845)"/>
</svg>
