<svg id="chat" xmlns="http://www.w3.org/2000/svg" width="25" height="25" viewBox="0 0 25 25">
  <path id="패스_11186" data-name="패스 11186" d="M572.033,231.828a9.86,9.86,0,0,0-19.72,0c0,.149,0,.287.01.418a9.77,9.77,0,0,0,.638,3.107l.071.545c.248,2.181.054,3.794-.56,4.577a.75.75,0,0,0,.337,1.168,7.246,7.246,0,0,0,2.453.473,4.633,4.633,0,0,0,3.147-1.177,9.739,9.739,0,0,0,3.764.749A9.872,9.872,0,0,0,572.033,231.828Zm-13.461,7.541a.755.755,0,0,0-.519-.044.743.743,0,0,0-.168.069h0a.732.732,0,0,0-.188.15,3.452,3.452,0,0,1-3.525.945,10.794,10.794,0,0,0,.264-5.43.77.77,0,0,0-.049-.18,8.38,8.38,0,0,1-.288-.88,8.267,8.267,0,0,1-.277-1.848c-.009-.111-.008-.213-.008-.324a8.36,8.36,0,1,1,8.36,8.36,8.259,8.259,0,0,1-3.595-.816Z" transform="translate(-552.313 -221.968)" fill="#999"/>
  <path id="패스_11187" data-name="패스 11187" d="M576.505,240.292a9.863,9.863,0,0,0,.313-.964,9.709,9.709,0,0,0,.324-2.126c.011-.149.011-.287.011-.436a9.845,9.845,0,0,0-2.514-6.576.75.75,0,0,0-1.118,1,8.341,8.341,0,0,1,2.132,5.575c0,.111,0,.213-.009.362a8.225,8.225,0,0,1-.275,1.812,8.793,8.793,0,0,1-.288.88.7.7,0,0,0-.048.167v0l0,.012a10.818,10.818,0,0,0,.263,5.427,3.449,3.449,0,0,1-3.534-.956.843.843,0,0,0-.869-.159v0a8.265,8.265,0,0,1-3.6.817,8.373,8.373,0,0,1-6.272-2.834.75.75,0,1,0-1.125.992,9.87,9.87,0,0,0,7.4,3.342,9.743,9.743,0,0,0,3.764-.749,4.631,4.631,0,0,0,3.148,1.176,7.266,7.266,0,0,0,2.452-.472.75.75,0,0,0,.337-1.168c-.614-.783-.808-2.4-.559-4.577Z" transform="translate(-552.153 -222.054)" fill="#999"/>
  <path id="패스_11188" data-name="패스 11188" d="M557.7,230.615a1.213,1.213,0,1,0,1.213,1.213A1.213,1.213,0,0,0,557.7,230.615Z" transform="translate(-552.283 -222.001)" fill="#999"/>
  <path id="패스_11189" data-name="패스 11189" d="M563.386,231.828a1.213,1.213,0,1,0-1.213,1.213A1.213,1.213,0,0,0,563.386,231.828Z" transform="translate(-552.251 -222.001)" fill="#999"/>
  <path id="패스_11190" data-name="패스 11190" d="M566.645,233.041a1.213,1.213,0,1,0-1.213-1.213A1.213,1.213,0,0,0,566.645,233.041Z" transform="translate(-552.219 -222.001)" fill="#999"/>
</svg>
