<svg id="close_btn" xmlns="http://www.w3.org/2000/svg" width="14.89" height="14.89" viewBox="0 0 14.89 14.89">
  <g id="그룹_5186" data-name="그룹 5186" transform="translate(-712.411 -887.665)">
    <path id="패스_11202" data-name="패스 11202" d="M726.551,902.555a.742.742,0,0,1-.53-.22l-13.39-13.389a.75.75,0,0,1,1.06-1.061l13.39,13.39a.75.75,0,0,1-.53,1.28Z" fill="#fff"/>
  </g>
  <g id="그룹_5187" data-name="그룹 5187" transform="translate(-712.411 -887.665)">
    <path id="패스_11203" data-name="패스 11203" d="M713.161,902.555a.75.75,0,0,1-.53-1.28l13.39-13.39a.75.75,0,1,1,1.06,1.061l-13.39,13.389A.742.742,0,0,1,713.161,902.555Z" fill="#fff"/>
  </g>
</svg>
