<svg xmlns="http://www.w3.org/2000/svg" width="14.934" height="11.507" viewBox="0 0 14.934 11.507">
    <g data-name="그룹 14592">
        <g data-name="그룹 4878">
            <g data-name="그룹 4877">
                <path data-name="패스 11080" d="m1.915 12.673-.908-5.9a.493.493 0 0 1 .782-.473l2.83 2.123a.676.676 0 0 0 .968-.166l2.356-3.536a.629.629 0 0 1 1.047 0l2.356 3.534a.676.676 0 0 0 .968.166L15.145 6.3a.493.493 0 0 1 .782.469l-.908 5.9z" transform="translate(-1 -4.441)" style="fill:#ffb743"/>
                <path data-name="패스 11081" d="M15.258 25.355H3.521a.683.683 0 0 1-.683-.683v-1.5h13.1v1.5a.683.683 0 0 1-.68.683z" transform="translate(-1.923 -13.848)" style="fill:#ffb743"/>
            </g>
        </g>
    </g>
</svg>
