<svg id="dark_mode" xmlns="http://www.w3.org/2000/svg" width="28" height="28" viewBox="0 0 28 28">
  <g id="그룹_5211" data-name="그룹 5211" transform="translate(-1000.252 -888.724)">
    <g id="그룹_5210" data-name="그룹 5210">
      <path id="패스_11224" data-name="패스 11224" d="M1000.4,910.064a15.207,15.207,0,0,0,12.809,6.66c8.3,0,15.043-6.279,15.043-14s-6.748-14-15.043-14a10.52,10.52,0,0,0-1.406.084.978.978,0,0,0-.835.715.905.905,0,0,0,.415.982,10.059,10.059,0,0,1,4.834,8.486c0,5.66-4.948,10.267-11.032,10.267a11.337,11.337,0,0,1-3.592-.562,1.053,1.053,0,0,0-1.117.289A.887.887,0,0,0,1000.4,910.064Z"/>
    </g>
  </g>
</svg>
