<svg id="dcoin" xmlns="http://www.w3.org/2000/svg" xmlns:xlink="http://www.w3.org/1999/xlink" width="28.435" height="26.147" viewBox="0 0 28.435 26.147">
  <defs>
    <clipPath id="clip-path">
      <path id="사각형_5346" data-name="사각형 5346" d="M0,0H23.453V21H0Z" fill="none"/>
    </clipPath>
    <clipPath id="clip-path-2">
      <path id="사각형_5349" data-name="사각형 5349" d="M0,0H28.435V26.147H0Z" fill="none"/>
    </clipPath>
  </defs>
  <g id="그룹_3558" data-name="그룹 3558">
    <g id="그룹_3557" data-name="그룹 3557" transform="translate(2.53 2.572)" clip-path="url(#clip-path)">
      <path id="패스_10328" data-name="패스 10328" d="M21.2,2.806c.008.008.017.008.025.017A10.292,10.292,0,0,1,15.28,21.038Z" transform="translate(-2.506 -0.46)" fill="#ffd05a"/>
      <path id="패스_10329" data-name="패스 10329" d="M23.2,10.937c0,5.432-4.667,9.836-10.425,9.836S2.35,16.373,2.35,10.937,7.013,1.1,12.771,1.1,23.2,5.5,23.2,10.937" transform="translate(-0.385 -0.18)" fill="#ffd05a"/>
    </g>
  </g>
  <g id="그룹_3560" data-name="그룹 3560">
    <g id="그룹_3559" data-name="그룹 3559" clip-path="url(#clip-path-2)">
      <path id="패스_10330" data-name="패스 10330" d="M8.479,6.471h3.389a4.56,4.56,0,0,1,4.706,4.407,4.611,4.611,0,0,1-.018.589,4.55,4.55,0,0,1-4.687,4.982H8.479ZM11.9,14.478c1.673,0,2.7-1.082,2.7-3.012s-1.027-3.023-2.7-3.023H10.426v6.036Z" transform="translate(1.139 1.511)" fill="#313131"/>
      <path id="사각형_5347" data-name="사각형 5347" d="M0,0H1.141V2.165H0Z" transform="translate(12.502 6.069)" fill="#313131"/>
      <path id="사각형_5348" data-name="사각형 5348" d="M0,0H1.141V3.818H0Z" transform="translate(12.323 16.321)" fill="#313131"/>
      <path id="패스_10331" data-name="패스 10331" d="M13.146.326h-.063a10.5,10.5,0,1,0,0,20.343h.059A10.175,10.175,0,1,0,13.414.321h-.271M1.961,10.5a8.582,8.582,0,1,1,8.582,8.582A8.582,8.582,0,0,1,1.961,10.5m15.813,7.587a10.455,10.455,0,0,0,.394-14.782q-.192-.2-.394-.394a8.87,8.87,0,0,1,0,15.175" transform="translate(2.53 2.572)" fill="#313131"/>
    </g>
  </g>
</svg>
