<svg xmlns="http://www.w3.org/2000/svg" width="25" height="25" viewBox="0 0 25 25">
    <path data-name="패스 10981" d="M26.432 5.409h-2.841V2.568L23.023 2H2.568L2 2.568v20.455l.568.568h2.841v2.841l.568.568h20.455l.568-.568V5.977zM3.136 3.136h19.319v8.1l-5.966-3.475-.767.193-4.273 6.946-4.08-2.04H6.8l-3.664 2.322zm0 19.318v-5.937l4.006-2.5 4.258 2.125.739-.21L16.4 9.023l6.057 3.528v9.9zm22.727 3.409H6.545v-2.272h16.478l.568-.568V6.545h2.273z" style="fill:#fff" transform="translate(-2 -2)"/>
    <path data-name="패스 10982" d="M12.879 8.939a2.939 2.939 0 1 0-2.939 2.939 2.939 2.939 0 0 0 2.939-2.939zm-4.9 0a1.96 1.96 0 1 1 1.96 1.96 1.96 1.96 0 0 1-1.96-1.96z" transform="translate(-4.55 -4.04)" style="fill:#fff"/>
</svg>
