<svg id="gif" xmlns="http://www.w3.org/2000/svg" width="22.979" height="22.979" viewBox="0 0 22.979 22.979">
  <g id="그룹_5218" data-name="그룹 5218" transform="translate(-920.168 -968.454)">
    <g id="그룹_5217" data-name="그룹 5217">
      <path id="패스_11227" data-name="패스 11227" d="M942.4,991.433H920.918a.75.75,0,0,1-.75-.75V969.2a.75.75,0,0,1,.75-.75H942.4a.75.75,0,0,1,.75.75v21.479A.75.75,0,0,1,942.4,991.433Zm-20.729-1.5h19.979V969.954H921.668Z" fill="#fff"/>
    </g>
  </g>
  <g id="그룹_5222" data-name="그룹 5222" transform="translate(-920.168 -968.454)">
    <g id="그룹_5221" data-name="그룹 5221">
      <path id="패스_11229" data-name="패스 11229" d="M927.181,984.757a2.781,2.781,0,0,1-2.778-2.778v-3.006a2.777,2.777,0,0,1,5.5-.559.749.749,0,1,1-1.468.3,1.278,1.278,0,0,0-2.53.258v3.006a1.277,1.277,0,1,0,2.555,0v-.233h-1.069a.75.75,0,0,1,0-1.5h1.819a.75.75,0,0,1,.75.75v.983A2.781,2.781,0,0,1,927.181,984.757Z" fill="#fff"/>
    </g>
  </g>
  <g id="그룹_5224" data-name="그룹 5224" transform="translate(-920.168 -968.454)">
    <g id="그룹_5223" data-name="그룹 5223">
      <path id="패스_11230" data-name="패스 11230" d="M931.657,984.905a.75.75,0,0,1-.75-.75v-7.209a.75.75,0,0,1,1.5,0v7.209A.75.75,0,0,1,931.657,984.905Z" fill="#fff"/>
    </g>
  </g>
  <g id="그룹_5226" data-name="그룹 5226" transform="translate(-920.168 -968.454)">
    <g id="그룹_5225" data-name="그룹 5225">
      <path id="패스_11231" data-name="패스 11231" d="M934.353,984.905a.75.75,0,0,1-.75-.75v-7.209a.75.75,0,0,1,.75-.75H937.6a.75.75,0,0,1,0,1.5H935.1v6.459A.75.75,0,0,1,934.353,984.905Z" fill="#fff"/>
    </g>
  </g>
  <g id="그룹_5228" data-name="그룹 5228" transform="translate(-920.168 -968.454)">
    <g id="그룹_5227" data-name="그룹 5227">
      <path id="패스_11232" data-name="패스 11232" d="M936.916,981.218h-2.563a.75.75,0,0,1,0-1.5h2.563a.75.75,0,0,1,0,1.5Z" fill="#fff"/>
    </g>
  </g>
</svg>
