<svg id="gift" xmlns="http://www.w3.org/2000/svg" width="18" height="18" viewBox="0 0 18 18">
  <path id="패스_11176" data-name="패스 11176" d="M615.81,183.892h-2.719a3.72,3.72,0,0,0,.7-1.435,2.066,2.066,0,0,0-1.232-2.413,3.442,3.442,0,0,0-2.834.119,5.416,5.416,0,0,0-2.162,2.316,5.422,5.422,0,0,0-2.162-2.316,3.488,3.488,0,0,0-2.909-.087,2.047,2.047,0,0,0-1.158,2.381,3.747,3.747,0,0,0,.7,1.435h-2.719a.742.742,0,0,0-.749.735v2.77a.742.742,0,0,0,.749.735h.439v8.93a.742.742,0,0,0,.749.735h14.128a.742.742,0,0,0,.749-.735v-8.93h.438a.742.742,0,0,0,.749-.735v-2.77A.742.742,0,0,0,615.81,183.892Zm-5.4-2.424a1.923,1.923,0,0,1,1.548-.078.589.589,0,0,1,.366.755,2.492,2.492,0,0,1-1.365,1.615c-.622.026-1.611,0-2.355-.031A4.642,4.642,0,0,1,610.41,181.469Zm-7.326-.046a2.322,2.322,0,0,1,.8-.153,1.8,1.8,0,0,1,.825.2,4.65,4.65,0,0,1,1.806,2.26c-.745.03-1.734.058-2.355.031a2.489,2.489,0,0,1-1.365-1.615A.567.567,0,0,1,603.085,181.423Zm-3.029,3.94h15.006v1.3H600.056Zm1.188,2.77h5.567v8.195h-5.567Zm12.631,8.195h-5.567v-8.195h5.567Z" transform="translate(-598.559 -179.797)" fill="#999"/>
</svg>
