<svg id="group" xmlns="http://www.w3.org/2000/svg" width="25" height="18.328" viewBox="0 0 25 18.328">
  <path id="패스_11179" data-name="패스 11179" d="M710.321,198.766a3.388,3.388,0,1,0-3.469-.025,5.83,5.83,0,0,0-2.792,1.8,8.666,8.666,0,0,0-3.835-2.094,4.9,4.9,0,1,0-4.207,0,8.638,8.638,0,0,0-6.558,8.354.711.711,0,0,0,1.422,0,7.24,7.24,0,0,1,14.48,0,.711.711,0,0,0,1.422,0,8.54,8.54,0,0,0-1.765-5.195,4.5,4.5,0,0,1,8.02,2.774.711.711,0,0,0,1.422,0A5.9,5.9,0,0,0,710.321,198.766ZM694.4,194.059a3.724,3.724,0,1,1,3.724,3.707A3.72,3.72,0,0,1,694.4,194.059Zm14.212-.4a2.21,2.21,0,1,1-2.221,2.21A2.218,2.218,0,0,1,708.609,193.661Z" transform="translate(-689.459 -189.18)" fill="#999"/>
</svg>
