<svg id="help" xmlns="http://www.w3.org/2000/svg" width="27.998" height="27.998" viewBox="0 0 27.998 27.998">
  <g id="그룹_5198" data-name="그룹 5198" transform="translate(-851.631 -888.556)">
    <path id="패스_11216" data-name="패스 11216" d="M865.63,890.056a12.5,12.5,0,1,1-12.5,12.5,12.513,12.513,0,0,1,12.5-12.5m0-1.5a14,14,0,1,0,14,14,14,14,0,0,0-14-14Z"/>
  </g>
  <g id="그룹_5200" data-name="그룹 5200" transform="translate(-851.631 -888.556)">
    <circle id="타원_284" data-name="타원 284" cx="1.245" cy="1.245" r="1.245" transform="translate(864.367 894.893)"/>
  </g>
  <g id="그룹_5202" data-name="그룹 5202" transform="translate(-851.631 -888.556)">
    <path id="패스_11218" data-name="패스 11218" d="M866.672,910.707a.75.75,0,0,1-.75-.75v-7.55a.346.346,0,0,0-.347-.346h-1.208a.75.75,0,0,1,0-1.5h1.208a1.848,1.848,0,0,1,1.847,1.846v7.55A.75.75,0,0,1,866.672,910.707Z"/>
  </g>
</svg>
