<svg id="home" xmlns="http://www.w3.org/2000/svg" width="21" height="21" viewBox="0 0 21 21">
  <path id="패스_11164" data-name="패스 11164" d="M30.352,876.352l-6.859-7.1h0a3.944,3.944,0,0,0-5.611,0l-6.859,7.1a2.936,2.936,0,0,0-.835,2.044v9.947a.733.733,0,0,0,.733.733H17.2a.157.157,0,0,0,.023,0,.234.234,0,0,0,.023,0h6.892a.234.234,0,0,0,.023,0,.157.157,0,0,0,.023,0h6.272a.733.733,0,0,0,.733-.733V878.4A2.936,2.936,0,0,0,30.352,876.352Zm-6.925,11.259H17.953v-4.276a2.648,2.648,0,0,1,2.737-2.542,2.817,2.817,0,0,1,1.948.764,2.435,2.435,0,0,1,.789,1.779Zm6.3,0h-4.83v-4.276a3.884,3.884,0,0,0-1.249-2.844,4.277,4.277,0,0,0-2.953-1.163,4.113,4.113,0,0,0-4.2,4.008v4.276H11.652V878.4a1.471,1.471,0,0,1,.425-1.026l6.858-7.1a2.563,2.563,0,0,1,3.5,0l6.859,7.1a1.471,1.471,0,0,1,.425,1.026Z" transform="translate(-10.187 -868.081)" fill="#999"/>
</svg>
