<svg id="like" xmlns="http://www.w3.org/2000/svg" width="18" height="18" viewBox="0 0 18 18">
  <path id="패스_11175" data-name="패스 11175" d="M557.607,185.142a4.308,4.308,0,0,0-4.149-2.966,4.675,4.675,0,0,0-4.417,2.725,4.672,4.672,0,0,0-4.416-2.725,4.308,4.308,0,0,0-4.149,2.966c-1.036,2.71-.174,6.363,2.1,8.883a58.643,58.643,0,0,0,6.032,5.994.687.687,0,0,0,.436.157h0a.687.687,0,0,0,.436-.157,58.761,58.761,0,0,0,6.032-5.994C557.781,191.505,558.643,187.852,557.607,185.142Zm-3.148,7.75a66.478,66.478,0,0,1-5.418,5.453,66.7,66.7,0,0,1-5.417-5.453,7.316,7.316,0,0,1-1.786-7.127,2.851,2.851,0,0,1,2.787-1.974c3.508,0,3.671,3.753,3.678,4.179a.74.74,0,1,0,1.476,0c0-.17.087-4.179,3.679-4.179a2.851,2.851,0,0,1,2.787,1.974A7.316,7.316,0,0,1,554.459,192.892Z" transform="translate(-540.041 -182.176)" fill="#999"/>
</svg>
