<svg id="link" xmlns="http://www.w3.org/2000/svg" width="24" height="24" viewBox="0 0 24 24">
  <path id="패스_11209" data-name="패스 11209" d="M943.887,815l-4.124,4.124a5.213,5.213,0,0,1-7.373-7.373l4.124-4.124a.75.75,0,0,0-1.061-1.06l-4.124,4.124a6.713,6.713,0,0,0,9.494,9.494l4.124-4.124a.75.75,0,1,0-1.06-1.061Z" transform="translate(-929.366 -798.147)"/>
  <path id="패스_11210" data-name="패스 11210" d="M951.1,800.415c-2.618-2.619-6.667-2.828-9.027-.468l-3.667,3.667a.75.75,0,0,0,1.061,1.061l3.667-3.667c1.775-1.774,4.874-1.564,6.9.468s2.242,5.131.468,6.9l-3.667,3.667a.75.75,0,0,0,1.06,1.061l3.667-3.667C953.925,807.082,953.715,803.032,951.1,800.415Z" transform="translate(-929.207 -798.305)"/>
  <path id="패스_11211" data-name="패스 11211" d="M943.887,806.566l-6.408,6.407a.75.75,0,1,0,1.061,1.06l6.407-6.407a.75.75,0,0,0-1.06-1.06Z" transform="translate(-929.287 -798.225)"/>
</svg>
