<svg id="live_like" xmlns="http://www.w3.org/2000/svg" width="15.965" height="15.732" viewBox="0 0 15.965 15.732">
  <path id="패스_11192" data-name="패스 11192" d="M674.783,267.363a2.265,2.265,0,0,0-.434-1.217,4,4,0,0,0,.156-1.06.653.653,0,0,0-.005-.117,1.529,1.529,0,0,0-.6-1.038c-.9-.69-2.579-.628-4.355-.412.078-.26.2-.586.293-.834a10.243,10.243,0,0,0,.458-1.425.9.9,0,0,0,.015-.106,3.057,3.057,0,0,0-1.078-2.576,2.352,2.352,0,0,0-1.843-.649c-.842.187-1.073,1.255-1.109,2.179a34.93,34.93,0,0,1-2.1,4.182,6.54,6.54,0,0,0-1.153,1.213h-3.452a.75.75,0,0,0-.75.75v6.276a.75.75,0,0,0,.75.75h3.8c.339.025,4.392.321,5.3.347.007,0,.2.008.508.008a8.621,8.621,0,0,0,3.614-.594,2.006,2.006,0,0,0,.839-2.1,2.548,2.548,0,0,0,.68-.99,2.017,2.017,0,0,0,0-1.359A2.163,2.163,0,0,0,674.783,267.363ZM660.318,267h2.33v4.776h-2.33Zm12.587.926a.766.766,0,0,0-.1.969.677.677,0,0,1,.093.533,1.158,1.158,0,0,1-.461.537.755.755,0,0,0-.361.909c.046.138.18.73-.069.882a9.263,9.263,0,0,1-3.27.369c-.693-.02-3.32-.2-4.59-.3V266.5a5.3,5.3,0,0,1,.954-1.027.748.748,0,0,0,.168-.149,33.953,33.953,0,0,0,2.439-4.744.729.729,0,0,0,.063-.287,4.269,4.269,0,0,1,.1-.818,1.674,1.674,0,0,1,.545.4,1.557,1.557,0,0,1,.4,1.131,9.993,9.993,0,0,1-.383,1.152c-.381,1.017-.71,1.895-.221,2.51a1.172,1.172,0,0,0,1.139.389c3.044-.408,3.567-.037,3.655.083a3.776,3.776,0,0,1-.087.618.752.752,0,0,0,.017,1.008,1.4,1.4,0,0,1,.351.594A1.444,1.444,0,0,1,672.905,267.929Z" transform="translate(-658.818 -257.902)" fill="#999"/>
</svg>
