<svg id="live_like_click" xmlns="http://www.w3.org/2000/svg" xmlns:xlink="http://www.w3.org/1999/xlink" width="15" height="15" viewBox="0 0 15 15">
  <defs>
    <linearGradient id="linear-gradient" x1="-3.492" y1="2.518" x2="-3.285" y2="2.299" gradientUnits="objectBoundingBox">
      <stop offset="0" stop-color="#0c0"/>
      <stop offset="1" stop-color="#00aa34"/>
    </linearGradient>
  </defs>
  <path id="Icon" d="M1006.254,470.819a.888.888,0,0,1-.855.907h-2.369a.88.88,0,0,1-.855-.907V463.7a.88.88,0,0,1,.855-.907h2.357a.88.88,0,0,1,.855.907v7.12Zm10.03-5.588a1.3,1.3,0,0,1,.185,1.752,1.127,1.127,0,0,1-.647.429,1.284,1.284,0,0,1,.185,1.74,1.2,1.2,0,0,1-.659.441,1.285,1.285,0,0,1,.173,1.753,1.138,1.138,0,0,1-.913.466l-6.645-.074a.88.88,0,0,1-.855-.907V463.7c0-1.127,3.4-3.2,3.571-4.314.116-.735-.035-2.574.428-2.574.8,0,1.8.319,1.8,2.181a10.918,10.918,0,0,1-1.017,3.775h4.114a1.2,1.2,0,0,1,1.167,1.238,1.184,1.184,0,0,1-.89,1.226Z" transform="translate(-1002.175 -456.812)" fill="url(#linear-gradient)"/>
</svg>
