<svg xmlns="http://www.w3.org/2000/svg" width="21.767" height="18.946" viewBox="0 0 21.767 18.946">
    <g data-name="그룹 5487">
        <path data-name="패스 11323" d="M54.07 7.66a2.9 2.9 0 0 0-2.9 2.9 2.862 2.862 0 0 0 .85 2.05 2.9 2.9 0 0 0 4.1 0 2.9 2.9 0 0 0-2.05-4.95m0 4.29a1.4 1.4 0 1 1 1.4-1.4 1.4 1.4 0 0 1-1.4 1.4" transform="translate(-43.191 -1.03)" style="fill:#fff"/>
        <path data-name="패스 11324" d="M48.882 10.53a7.744 7.744 0 0 1 1.694-4.749 1.054 1.054 0 0 0 .278-.763 1.1 1.1 0 0 0-.4-.782 1.162 1.162 0 0 0-1.579.126 9.761 9.761 0 0 0-2.244 6.188 9.92 9.92 0 0 0 2.589 6.387 1.145 1.145 0 0 0 .807.34h.014a1.137 1.137 0 0 0 .746-.277 1.051 1.051 0 0 0 .371-.721 1.075 1.075 0 0 0-.286-.814 7.9 7.9 0 0 1-1.99-4.936" transform="translate(-43.191 -1.03)" style="fill:#fff"/>
        <path data-name="패스 11325" d="M45.449 10.558v-.022a10.106 10.106 0 0 1 3.171-7.584 1.05 1.05 0 0 0 .2-1.469l-.062-.074a1.155 1.155 0 0 0-1.582-.11 12 12 0 0 0-3.976 9.232 11.988 11.988 0 0 0 3.811 9.194 1.146 1.146 0 0 0 .711.251h.017a1.15 1.15 0 0 0 .836-.362 1.057 1.057 0 0 0-.093-1.517 9.988 9.988 0 0 1-3.032-7.539" transform="translate(-43.191 -1.03)" style="fill:#fff"/>
        <path data-name="패스 11326" d="M61.513 10.458a9.914 9.914 0 0 0-2.575-6.375l-.012-.014a1.161 1.161 0 0 0-1.567-.06 1.043 1.043 0 0 0-.369.72 1.078 1.078 0 0 0 .286.814 7.9 7.9 0 0 1 1.99 4.922 7.741 7.741 0 0 1-1.7 4.76 1.075 1.075 0 0 0 .118 1.545 1.142 1.142 0 0 0 .717.256h.016a1.148 1.148 0 0 0 .85-.381 9.777 9.777 0 0 0 2.243-6.187" transform="translate(-43.191 -1.03)" style="fill:#fff"/>
        <path data-name="패스 11327" d="m61.161 1.3-.023-.021a1.155 1.155 0 0 0-1.563.113 1.058 1.058 0 0 0 .093 1.516 10.007 10.007 0 0 1 3.032 7.566 10.107 10.107 0 0 1-3.173 7.583 1.049 1.049 0 0 0-.2 1.468l.061.072a1.138 1.138 0 0 0 .841.374 1.237 1.237 0 0 0 .744-.262 12 12 0 0 0 3.979-9.23A11.979 11.979 0 0 0 61.161 1.3" transform="translate(-43.191 -1.03)" style="fill:#fff"/>
    </g>
</svg>
