<svg id="live" xmlns="http://www.w3.org/2000/svg" width="21.002" height="18.195" viewBox="0 0 21.002 18.195">
  <path id="패스_11149" data-name="패스 11149" d="M-23.641,901.672a2.9,2.9,0,0,0-2.9,2.9,2.9,2.9,0,0,0,2.9,2.9,2.9,2.9,0,0,0,2.9-2.9A2.9,2.9,0,0,0-23.641,901.672Zm0,4.293a1.4,1.4,0,0,1-1.4-1.4,1.4,1.4,0,0,1,1.4-1.4,1.4,1.4,0,0,1,1.4,1.4A1.4,1.4,0,0,1-23.641,905.965Z" transform="translate(34.14 -895.422)" fill="#999"/>
  <path id="패스_11150" data-name="패스 11150" d="M-29.078,904.208a8.1,8.1,0,0,1,1.794-5.008.686.686,0,0,0-.079-1,.78.78,0,0,0-1.057.073,9.367,9.367,0,0,0-2.158,5.937,9.531,9.531,0,0,0,2.482,6.135.761.761,0,0,0,.55.229.768.768,0,0,0,.507-.188.684.684,0,0,0,.047-1A8.258,8.258,0,0,1-29.078,904.208Z" transform="translate(34.011 -895.078)" fill="#999"/>
  <path id="패스_11151" data-name="패스 11151" d="M-32.423,903.949a10.487,10.487,0,0,1,3.32-7.892.673.673,0,0,0,.092-.989.786.786,0,0,0-1.057-.086,11.656,11.656,0,0,0-3.855,8.967,11.606,11.606,0,0,0,3.67,8.887.773.773,0,0,0,.488.169.771.771,0,0,0,.569-.243.672.672,0,0,0-.08-.991A10.348,10.348,0,0,1-32.423,903.949Z" transform="translate(33.923 -894.81)" fill="#999"/>
  <path id="패스_11152" data-name="패스 11152" d="M-19.185,898.007a.779.779,0,0,0-1.058-.041.684.684,0,0,0-.046,1,8.264,8.264,0,0,1,2.085,5.173A8.1,8.1,0,0,1-20,909.15a.685.685,0,0,0,.079,1,.767.767,0,0,0,.489.173.765.765,0,0,0,.568-.246,9.368,9.368,0,0,0,2.157-5.937A9.533,9.533,0,0,0-19.185,898.007Z" transform="translate(34.272 -895.078)" fill="#999"/>
  <path id="패스_11153" data-name="패스 11153" d="M-17.028,894.98a.786.786,0,0,0-1.057.075.67.67,0,0,0,.08.99,10.352,10.352,0,0,1,3.147,7.823,10.483,10.483,0,0,1-3.321,7.891.673.673,0,0,0-.091.989.769.769,0,0,0,.575.251.78.78,0,0,0,.482-.165,11.659,11.659,0,0,0,3.855-8.966A11.606,11.606,0,0,0-17.028,894.98Z" transform="translate(34.36 -894.81)" fill="#999"/>
</svg>
