<svg id="logout" xmlns="http://www.w3.org/2000/svg" width="27.479" height="27.355" viewBox="0 0 27.479 27.355">
  <g id="그룹_5205" data-name="그룹 5205" transform="translate(-920.168 -888.822)">
    <g id="그룹_5204" data-name="그룹 5204">
      <path id="패스_11220" data-name="패스 11220" d="M937.745,916.177H920.918a.75.75,0,0,1-.75-.75V889.572a.75.75,0,0,1,.75-.75h16.827a.75.75,0,0,1,.75.75V893.7a.75.75,0,0,1-1.5,0v-3.379H921.668v24.355h15.327V911.3a.75.75,0,0,1,1.5,0v4.128A.75.75,0,0,1,937.745,916.177Z"/>
    </g>
  </g>
  <g id="그룹_5206" data-name="그룹 5206" transform="translate(-920.168 -888.822)">
    <path id="패스_11221" data-name="패스 11221" d="M947.286,901.859l-7.315-4.432a.75.75,0,1,0-.778,1.283l5.019,3.04H929.854a.75.75,0,0,0,0,1.5h14.567l-5.255,3.506A.75.75,0,1,0,940,908l7.315-4.88a.75.75,0,0,0-.027-1.265Z"/>
  </g>
</svg>
