<svg id="message" xmlns="http://www.w3.org/2000/svg" width="21" height="21" viewBox="0 0 21 21">
  <path id="패스_11129" data-name="패스 11129" d="M357.366,852.858a10.495,10.495,0,0,0-9.04,15.826l-1.124,4.275a.647.647,0,0,0,.627.811.644.644,0,0,0,.192-.029l4.118-1.281a10.5,10.5,0,1,0,5.227-19.6Zm0,19.705a9.245,9.245,0,0,1-4.816-1.357l0,.005a.636.636,0,0,0-.526-.07l-3.27,1.017.894-3.4a.639.639,0,0,0-.08-.506l0,0a9.208,9.208,0,1,1,7.8,4.314Z" transform="translate(-346.87 -852.858)" fill="#999"/>
  <g id="그룹_5102" data-name="그룹 5102" transform="translate(5.191 9.471)">
    <circle id="타원_277" data-name="타원 277" cx="1.028" cy="1.028" r="1.028" fill="#999"/>
  </g>
  <g id="그룹_5103" data-name="그룹 5103" transform="translate(9.507 9.471)">
    <circle id="타원_278" data-name="타원 278" cx="1.028" cy="1.028" r="1.028" fill="#999"/>
  </g>
  <g id="그룹_5104" data-name="그룹 5104" transform="translate(13.824 9.471)">
    <circle id="타원_279" data-name="타원 279" cx="1.028" cy="1.028" r="1.028" fill="#999"/>
  </g>
</svg>
