<svg id="notice" xmlns="http://www.w3.org/2000/svg" width="24.999" height="25.001" viewBox="0 0 24.999 25.001">
  <path id="패스_11182" data-name="패스 11182" d="M504.319,519.411a.709.709,0,0,0-.911.414c-.5,1.321-.981,1.673-1.191,1.673-.717,0-2.113-2.807-2.113-7.954s1.4-7.964,2.113-7.964c.175,0,.63.3,1.1,1.458a.707.707,0,1,0,1.312-.529c-.781-1.938-1.741-2.344-2.408-2.344a1.662,1.662,0,0,0-.6.125h-.01a.035.035,0,0,0-.028.009c-.038.009-.066.019-.1.029l-.689.263a.134.134,0,0,0-.057.019l-12.169,4.547-.007,0a2.42,2.42,0,0,0-1.611-.671c-1.8,0-3.2,2.222-3.2,5.056s1.407,5.045,3.2,5.045a2.419,2.419,0,0,0,1.612-.672l.006,0,1.358.509v10.028a.707.707,0,0,0,.708.708h4.849a.713.713,0,0,0,.708-.708V520.77l4.547,1.7.057.028.689.255a.608.608,0,0,0,.123.038c.011,0,.019,0,.029,0a1.648,1.648,0,0,0,.59.121c1.025,0,1.871-.872,2.516-2.591A.707.707,0,0,0,504.319,519.411Zm-15.664-2.952-.082-.032-.009,0,0,0h0a.709.709,0,0,0-.738.234,1.253,1.253,0,0,1-.877.52c-.843,0-1.787-1.552-1.787-3.63,0-2.146.942-3.641,1.787-3.641a1.254,1.254,0,0,1,.877.521.7.7,0,0,0,.653.241l.022.01a.175.175,0,0,0,.066-.019h0l.019-.008.075-.03,11.175-4.168a22.577,22.577,0,0,0,0,14.176l-3.8-1.424-.7-.254L490.9,517.3l-.132-.048Zm6.113,11.292h-3.434v-8.792l3.434,1.283Z" transform="translate(-483.741 -504.165)" fill="#999"/>
  <path id="패스_11183" data-name="패스 11183" d="M509.245,513.354h-3.387a.708.708,0,0,0,0,1.415h3.387a.708.708,0,0,0,0-1.415Z" transform="translate(-484.953 -504.685)" fill="#999"/>
  <path id="패스_11184" data-name="패스 11184" d="M505.375,511.579a.707.707,0,0,0,1-.032L508.769,509a.707.707,0,0,0-1.031-.969l-2.4,2.55A.708.708,0,0,0,505.375,511.579Z" transform="translate(-484.953 -504.371)" fill="#999"/>
  <path id="패스_11185" data-name="패스 11185" d="M506.375,516.423a.708.708,0,0,0-1.032.969l2.4,2.549a.707.707,0,1,0,1.031-.968Z" transform="translate(-484.953 -504.847)" fill="#999"/>
</svg>
