<svg id="notification" xmlns="http://www.w3.org/2000/svg" width="20.698" height="22.78" viewBox="0 0 20.698 22.78">
  <path id="패스_11159" data-name="패스 11159" d="M450.167,868.043l-.146-.371a.725.725,0,0,0-.134-.216l-3.137-3.487v-2.934a7.3,7.3,0,0,0-2.017-5.084,6.678,6.678,0,0,0-9.729,0,7.3,7.3,0,0,0-2.017,5.084v2.934l-3.137,3.487a.725.725,0,0,0-.134.216l-.146.371a.745.745,0,0,0-.051.271v2.152a1.2,1.2,0,0,0,1.168,1.217H449.05a1.2,1.2,0,0,0,1.168-1.217v-2.152A.745.745,0,0,0,450.167,868.043Zm-1.318,2.213h-17.96v-1.8l3.283-3.718a.729.729,0,0,0,.185-.487v-3.217a5.857,5.857,0,0,1,1.615-4.075,5.352,5.352,0,0,1,7.794,0,5.855,5.855,0,0,1,1.615,4.075v3.217a.729.729,0,0,0,.185.487l3.236,3.6.047.119Z" transform="translate(-429.52 -853.848)" fill="#999"/>
  <path id="패스_11160" data-name="패스 11160" d="M443.194,875.193a2.464,2.464,0,0,1-4.928,0" transform="translate(-430.386 -854.877)" fill="#999"/>
</svg>
