<svg id="picture" xmlns="http://www.w3.org/2000/svg" width="22.999" height="22.999" viewBox="0 0 22.999 22.999">
  <g id="패스_11194" data-name="패스 11194" transform="translate(-945.985 -968.444)">
    <path id="패스_11225" data-name="패스 11225" d="M968.225,968.444h-21.48a.761.761,0,0,0-.76.76v21.479a.76.76,0,0,0,.76.76h21.479a.761.761,0,0,0,.76-.76V969.2A.761.761,0,0,0,968.225,968.444Zm-.76,1.521V988.9c-1.844-2.432-8.447-10.753-12.8-11.139-2.311-.2-5.355,2.907-7.156,5.041V969.965ZM947.506,985.24c1.867-2.464,5.279-6.1,7.023-5.959,3.334.294,9.348,7.4,11.8,10.643H947.506Z" fill="#fff"/>
  </g>
  <g id="패스_11195" data-name="패스 11195" transform="translate(-945.985 -968.444)">
    <path id="패스_11226" data-name="패스 11226" d="M961.344,978.651a3.269,3.269,0,1,0-3.27-3.269A3.269,3.269,0,0,0,961.344,978.651Zm0-5.018a1.749,1.749,0,1,1-1.75,1.749,1.75,1.75,0,0,1,1.75-1.749Z" fill="#fff"/>
  </g>
</svg>
