<svg id="post" xmlns="http://www.w3.org/2000/svg" width="21.001" height="21" viewBox="0 0 21.001 21">
  <g id="그룹_5110" data-name="그룹 5110" transform="translate(0 6.201)">
    <path id="패스_11154" data-name="패스 11154" d="M-321.835,1071.15H-341.3a.788.788,0,0,1-.767-.806v-13.187a.788.788,0,0,1,.767-.806h19.467a.788.788,0,0,1,.767.806v13.187A.788.788,0,0,1-321.835,1071.15Zm-18.7-1.612H-322.6v-11.574h-17.933Z" transform="translate(342.069 -1056.351)" fill="#999"/>
  </g>
  <g id="그룹_5111" data-name="그룹 5111" transform="translate(2.595 3.028)">
    <path id="패스_11155" data-name="패스 11155" d="M-324.488,1054.782h-14.276a.767.767,0,0,1-.767-.767.767.767,0,0,1,.767-.767h14.276a.767.767,0,0,1,.767.767A.767.767,0,0,1-324.488,1054.782Z" transform="translate(339.531 -1053.248)" fill="#999"/>
  </g>
  <g id="그룹_5112" data-name="그룹 5112" transform="translate(4.614)">
    <path id="패스_11156" data-name="패스 11156" d="M-326.552,1051.821H-336.79a.767.767,0,0,1-.767-.767.767.767,0,0,1,.767-.767h10.239a.767.767,0,0,1,.767.767A.767.767,0,0,1-326.552,1051.821Z" transform="translate(337.557 -1050.287)" fill="#999"/>
  </g>
</svg>
