<svg xmlns="http://www.w3.org/2000/svg" width="21.01" height="20.996" viewBox="0 0 21.01 20.996">
    <g data-name="그룹 5488">
        <path data-name="패스 11328" d="M105.2 6.21H85.73a.79.79 0 0 0-.77.8V20.2a.79.79 0 0 0 .77.8h19.47a.79.79 0 0 0 .77-.8V7.01a.79.79 0 0 0-.77-.8" transform="translate(-84.96 -.004)" style="fill:#fff"/>
        <path data-name="패스 11329" d="M88.324 4.566H102.6a.767.767 0 0 0 0-1.534H88.324a.767.767 0 0 0 0 1.534" transform="translate(-84.96 -.004)" style="fill:#fff"/>
        <path data-name="패스 11330" d="M90.343 1.538h10.239a.767.767 0 0 0 0-1.534H90.343a.767.767 0 1 0 0 1.534" transform="translate(-84.96 -.004)" style="fill:#fff"/>
    </g>
</svg>
