<svg data-name="그룹 5502" xmlns="http://www.w3.org/2000/svg" width="21.25" height="21.25" viewBox="0 0 21.25 21.25">
    <defs>
        <clipPath id="q8awuojwea">
            <path data-name="사각형 9844" style="fill:#fff" d="M0 0h21.25v21.25H0z"/>
        </clipPath>
    </defs>
    <g data-name="그룹 5501" style="clip-path:url(#q8awuojwea)">
        <path data-name="패스 11339" d="M10.62 0a10.624 10.624 0 1 0 10.63 10.62A10.627 10.627 0 0 0 10.62 0M6.93 8.3a3.69 3.69 0 1 1 3.69 3.69A3.7 3.7 0 0 1 6.93 8.3m9.47 9.38c-.1.08-.2.16-.31.24s-.24.18-.36.26a3.024 3.024 0 0 1-.33.21c-.13.08-.26.16-.39.23-.11.06-.23.12-.34.18-.14.07-.28.13-.42.19-.11.05-.23.1-.34.15l-.45.15c-.11.04-.23.08-.34.11-.16.05-.32.08-.48.12-.12.02-.22.05-.34.07a4.854 4.854 0 0 1-.55.08c-.09.01-.19.03-.28.04a7.935 7.935 0 0 1-.85.04 8.06 8.06 0 0 1-.85-.04c-.09-.01-.19-.03-.28-.04a5.207 5.207 0 0 1-.55-.08c-.11-.02-.22-.05-.33-.07-.16-.04-.32-.07-.48-.12-.12-.03-.23-.07-.35-.11-.15-.05-.29-.1-.44-.15-.12-.05-.23-.1-.35-.15-.14-.06-.28-.12-.41-.19s-.23-.12-.35-.18-.26-.15-.38-.22-.22-.15-.33-.22c-.13-.08-.25-.17-.37-.26s-.21-.16-.31-.24a2 2 0 0 1-.16-.14 6.381 6.381 0 0 1 11.88 0c-.05.05-.1.09-.16.14" style="fill:#fff"/>
    </g>
</svg>
