<svg id="profile" xmlns="http://www.w3.org/2000/svg" width="28" height="28" viewBox="0 0 28 28">
  <g id="패스_11214" data-name="패스 11214" transform="translate(-863.951 -764.267)" fill="none" stroke-linecap="round" stroke-linejoin="round">
    <path d="M891.951,778.267a14,14,0,1,1-14-14A13.953,13.953,0,0,1,891.951,778.267Z" stroke="none"/>
    <path d="M 877.9509887695312 765.7670288085938 C 871.0584716796875 765.7670288085938 865.4509887695312 771.37451171875 865.4509887695312 778.2670288085938 C 865.4509887695312 780.0653686523438 865.8243408203125 781.7999267578125 866.5606689453125 783.4225463867188 C 867.2722778320312 784.9905395507812 868.2837524414062 786.3739624023438 869.566650390625 787.5339965820312 C 871.8739013671875 789.6188354492188 874.8515014648438 790.7670288085938 877.9509887695312 790.7670288085938 C 881.050537109375 790.7670288085938 884.0281372070312 789.6188354492188 886.3349609375 787.5343627929688 C 887.6182861328125 786.3739624023438 888.6297607421875 784.9905395507812 889.34130859375 783.4225463867188 C 890.07763671875 781.7999877929688 890.4509887695312 780.0653686523438 890.4509887695312 778.2670288085938 C 890.4509887695312 771.37451171875 884.843505859375 765.7670288085938 877.9509887695312 765.7670288085938 M 877.9509887695312 764.2670288085938 C 885.6810302734375 764.2670288085938 891.9509887695312 770.5369873046875 891.9509887695312 778.2670288085938 C 891.9509887695312 782.3870239257812 890.1710205078125 786.0880126953125 887.3410034179688 788.64697265625 C 884.8510131835938 790.89697265625 881.5609741210938 792.2670288085938 877.9509887695312 792.2670288085938 C 874.3410034179688 792.2670288085938 871.051025390625 790.89697265625 868.5609741210938 788.64697265625 C 865.7310180664062 786.0880126953125 863.9509887695312 782.3870239257812 863.9509887695312 778.2670288085938 C 863.9509887695312 770.5369873046875 870.2210083007812 764.2670288085938 877.9509887695312 764.2670288085938 Z" stroke="none" fill="#000"/>
  </g>
  <g id="타원_283" data-name="타원 283" transform="translate(7.439 5.206)" fill="none" stroke="#000" stroke-linecap="round" stroke-linejoin="round" stroke-width="1.5">
    <circle cx="6.56" cy="6.56" r="6.56" stroke="none"/>
    <circle cx="6.56" cy="6.56" r="5.81" fill="none"/>
  </g>
  <g id="패스_11215" data-name="패스 11215" transform="translate(-863.951 -764.267)" fill="none" stroke-linecap="round" stroke-linejoin="round">
    <path d="M887.341,788.647a13.988,13.988,0,0,1-18.78,0,9.614,9.614,0,0,1,18.78,0Z" stroke="none"/>
    <path d="M 877.9509887695312 790.7670288085938 C 880.747802734375 790.7670288085938 883.4454345703125 789.8321533203125 885.6407470703125 788.1177978515625 C 885.1554565429688 786.6781005859375 884.2630004882812 785.3853759765625 883.0714111328125 784.4152221679688 C 881.6314086914062 783.2427368164062 879.8129272460938 782.5969848632812 877.9509887695312 782.5969848632812 C 876.089111328125 782.5969848632812 874.2706298828125 783.2427368164062 872.83056640625 784.4152221679688 C 871.6389770507812 785.3853759765625 870.7465209960938 786.6781005859375 870.26123046875 788.1177978515625 C 872.4566040039062 789.8321533203125 875.1541748046875 790.7670288085938 877.9509887695312 790.7670288085938 M 877.9509887695312 792.2670288085938 C 874.3410034179688 792.2670288085938 871.051025390625 790.89697265625 868.5609741210938 788.64697265625 C 869.5009765625 784.3270263671875 873.3510131835938 781.0969848632812 877.9509887695312 781.0969848632812 C 882.551025390625 781.0969848632812 886.4010009765625 784.3270263671875 887.3410034179688 788.64697265625 C 884.8510131835938 790.89697265625 881.5609741210938 792.2670288085938 877.9509887695312 792.2670288085938 Z" stroke="none" fill="#000"/>
  </g>
</svg>
