<svg id="random" xmlns="http://www.w3.org/2000/svg" width="19.832" height="14.965" viewBox="0 0 19.832 14.965">
  <path id="패스_11240" data-name="패스 11240" d="M989.968,1013.581l-1.245,1a.75.75,0,0,0,.939,1.17l2.909-2.334a.75.75,0,0,0-.007-1.176l-2.909-2.279a.751.751,0,0,0-.926,1.182l1.2.938c-3.415,0-6.24.249-8.59,3.8-2.94-5.228-6.924-5.24-7.076-5.247a.75.75,0,0,0,.009,1.5c.152,0,3.66.1,6.182,5.3-.085.17-.171.329-.255.51-2.425,5.238-6.2,4.994-6.359,4.972a.75.75,0,0,0-.142,1.493,2.809,2.809,0,0,0,.29.012c1.106,0,5.051-.4,7.573-5.847C983.744,1013.853,986.15,1013.574,989.968,1013.581Z" transform="translate(-973.02 -1009.8)" fill="#020202"/>
  <path id="패스_11241" data-name="패스 11241" d="M989.655,1018.811a.75.75,0,0,0-.926,1.179l1.18.926c-4.967.468-6.279-1.495-6.32-1.559a.75.75,0,0,0-1.314.724c.064.117,1.37,2.413,6.166,2.413.478,0,.99-.023,1.539-.073l-1.257,1.009a.75.75,0,0,0,.939,1.17l2.909-2.334a.749.749,0,0,0-.007-1.175Z" transform="translate(-973.02 -1009.8)" fill="#020202"/>
</svg>
