<svg id="rank" xmlns="http://www.w3.org/2000/svg" width="25" height="25" viewBox="0 0 25 25">
  <path id="패스_11181" data-name="패스 11181" d="M560.49,425.094a2.534,2.534,0,0,0-1.862-.786h-1.82l.109-1.854a.705.705,0,0,0-.706-.749H540.884a.707.707,0,0,0-.707.746l.1,1.891h-1.809a2.535,2.535,0,0,0-1.881.8,2,2,0,0,0-.534,1.54l.447,5.3a2.317,2.317,0,0,0,2.415,2.013h2.051a7.562,7.562,0,0,0,6.849,5.082v2.409A4.814,4.814,0,0,0,543.327,446a.708.708,0,0,0,.708.708h8.985a.708.708,0,0,0,.708-.708,4.814,4.814,0,0,0-4.492-4.517v-2.409a7.562,7.562,0,0,0,6.859-5.115h2.086a2.347,2.347,0,0,0,2.416-2.015l.447-5.3A2.033,2.033,0,0,0,560.49,425.094Zm-22.575,6.762-.448-5.3a.6.6,0,0,1,.171-.461,1.139,1.139,0,0,1,.835-.335h1.886l.375,6.817H538.92A.935.935,0,0,1,537.915,431.856Zm14.3,13.434h-7.377a4.007,4.007,0,0,1,7.377,0Zm-3.689-7.6c-3.418,0-6.219-2.254-6.377-5.131l-.519-9.435H555.46l-.557,9.452C554.735,435.439,551.934,437.686,548.527,437.686Zm10.658-5.865a.948.948,0,0,1-1.006.72h-1.858l.4-6.818h1.9a1.126,1.126,0,0,1,.823.332.629.629,0,0,1,.183.471Z" transform="translate(-536.049 -421.705)" fill="#999"/>
</svg>
