<svg id="reply" xmlns="http://www.w3.org/2000/svg" width="18" height="18" viewBox="0 0 18 18">
  <path id="패스_11171" data-name="패스 11171" d="M589.733,181.517H573.207a.738.738,0,0,0-.737.738v13.3a.738.738,0,0,0,.737.738h4.361l3.409,3.038a.736.736,0,0,0,.975,0l3.481-3.042h4.3a.738.738,0,0,0,.737-.738v-13.3A.738.738,0,0,0,589.733,181.517Zm-.737,13.3h-3.842a.57.57,0,0,0-.092.019.7.7,0,0,0-.162.032.725.725,0,0,0-.149.086.537.537,0,0,0-.077.044l-.04.034h0l-3.161,2.762L578.338,195a.783.783,0,0,0-.13-.076.454.454,0,0,0-.275-.092.673.673,0,0,0-.089-.018h-3.9V182.993H589Z" transform="translate(-572.47 -181.517)" fill="#999"/>
  <path id="패스_11172" data-name="패스 11172" d="M577.153,187.047h5.612a.75.75,0,0,0,0-1.5h-5.612a.75.75,0,0,0,0,1.5Z" transform="translate(-572.582 -181.586)" fill="#999"/>
  <path id="패스_11173" data-name="패스 11173" d="M577.131,189.957h9.284a.75.75,0,0,0,0-1.5h-9.284a.75.75,0,0,0,0,1.5Z" transform="translate(-572.47 -181.636)" fill="#999"/>
  <path id="패스_11174" data-name="패스 11174" d="M577.131,192.867h9.284a.75.75,0,0,0,0-1.5h-9.284a.75.75,0,0,0,0,1.5Z" transform="translate(-572.47 -181.685)" fill="#999"/>
</svg>
