<svg id="return" xmlns="http://www.w3.org/2000/svg" width="20" height="20" viewBox="0 0 20 20">
  <g id="그룹_5233" data-name="그룹 5233" transform="translate(1.357 9.83)">
    <path id="패스_11234" data-name="패스 11234" d="M925.189,1028.912a10.066,10.066,0,0,1-8.5-4.616.747.747,0,0,1,.23-1.036.759.759,0,0,1,1.043.228,8.591,8.591,0,0,0,15.745-3.666.745.745,0,0,1,.833-.665.753.753,0,0,1,.67.828A10.038,10.038,0,0,1,925.189,1028.912Z" transform="translate(-916.575 -1019.152)"/>
  </g>
  <g id="그룹_5234" data-name="그룹 5234" transform="translate(0 0.971)">
    <path id="패스_11235" data-name="패스 11235" d="M915.974,1018.258a.757.757,0,0,1-.747-.861,10.112,10.112,0,0,1,17.626-5.028.747.747,0,0,1-.081,1.058.759.759,0,0,1-1.065-.079,8.6,8.6,0,0,0-14.988,4.271A.753.753,0,0,1,915.974,1018.258Z" transform="translate(-915.218 -1008.881)"/>
  </g>
  <g id="그룹_5235" data-name="그룹 5235" transform="translate(17.665 5.286)">
    <path id="패스_11236" data-name="패스 11236" d="M932.757,1013.569" transform="translate(-932.757 -1013.569)" fill="none" stroke="#000" stroke-linecap="round" stroke-linejoin="round" stroke-width="1.5"/>
  </g>
  <g id="그룹_5236" data-name="그룹 5236" transform="translate(19.023 12.381)">
    <path id="패스_11237" data-name="패스 11237" d="M934.115,1021.165" transform="translate(-934.115 -1021.165)" fill="none" stroke="#000" stroke-linecap="round" stroke-linejoin="round" stroke-width="1.5"/>
  </g>
  <g id="그룹_5237" data-name="그룹 5237" transform="translate(11.777)">
    <path id="패스_11238" data-name="패스 11238" d="M932.643,1014.32h-5.024a.75.75,0,0,1,0-1.5h4.274v-4.16a.75.75,0,0,1,1.5,0v4.91A.75.75,0,0,1,932.643,1014.32Z" transform="translate(-926.869 -1007.91)"/>
  </g>
  <g id="그룹_5238" data-name="그룹 5238" transform="translate(0.677 13.59)">
    <path id="패스_11239" data-name="패스 11239" d="M916.645,1029.322a.75.75,0,0,1-.75-.75v-4.91a.75.75,0,0,1,.75-.75h5.023a.75.75,0,0,1,0,1.5H917.4v4.16A.75.75,0,0,1,916.645,1029.322Z" transform="translate(-915.895 -1022.912)"/>
  </g>
</svg>
