<svg id="send" xmlns="http://www.w3.org/2000/svg" width="23.293" height="23.288" viewBox="0 0 23.293 23.288">
  <path id="패스_11193" data-name="패스 11193" d="M651.451,282.76a.744.744,0,0,0-.809-.209l-21.685,8a.75.75,0,0,0-.141,1.338l8.319,5.253,5.245,8.306a.752.752,0,0,0,.634.35c.026,0,.052,0,.079,0a.752.752,0,0,0,.625-.487l7.995-21.685A.746.746,0,0,0,651.451,282.76Zm-3.464,2.369-10.221,10.307-.2.2-6.663-4.207Zm-5.151,18.229L638.63,296.7l.2-.2,10.311-10.225Z" transform="translate(-628.466 -282.506)" fill="#0c0"/>
</svg>
