<svg id="service_center" xmlns="http://www.w3.org/2000/svg" width="27.998" height="27.998" viewBox="0 0 27.998 27.998">
  <g id="그룹_5199" data-name="그룹 5199" transform="translate(-885.56 -888.556)">
    <path id="패스_11217" data-name="패스 11217" d="M899.559,890.056a12.5,12.5,0,1,1-12.5,12.5,12.513,12.513,0,0,1,12.5-12.5m0-1.5a14,14,0,1,0,14,14,14,14,0,0,0-14-14Z"/>
  </g>
  <g id="그룹_5201" data-name="그룹 5201" transform="translate(-885.56 -888.556)">
    <circle id="타원_285" data-name="타원 285" cx="1.245" cy="1.245" r="1.245" transform="translate(898.314 907.691)"/>
  </g>
  <g id="그룹_5203" data-name="그룹 5203" transform="translate(-885.56 -888.556)">
    <path id="패스_11219" data-name="패스 11219" d="M899.559,906.12a.75.75,0,0,1-.75-.75v-2.078a.75.75,0,0,1,.75-.75,2.733,2.733,0,0,0,2.957-2.726,2.957,2.957,0,0,0-5.914.012.75.75,0,0,1-1.5,0,4.457,4.457,0,1,1,8.914,0A4.17,4.17,0,0,1,900.309,904v1.374A.75.75,0,0,1,899.559,906.12Z"/>
  </g>
</svg>
