<svg id="setting" xmlns="http://www.w3.org/2000/svg" width="28" height="28" viewBox="0 0 28 28">
  <g id="그룹_5209" data-name="그룹 5209">
    <g id="그룹_5207" data-name="그룹 5207">
      <path id="패스_11222" data-name="패스 11222" d="M968.873,914.289a14.236,14.236,0,0,1-1.715-.1,1.594,1.594,0,0,1-1.4-1.779c.146-1.334-.3-2.45-1.074-2.712-.706-.232-1.6.249-2.283,1.225a1.529,1.529,0,0,1-1.044.638,1.6,1.6,0,0,1-1.233-.336,14,14,0,0,1-2.506-2.6h0a1.58,1.58,0,0,1-.292-1.185,1.609,1.609,0,0,1,.657-1.065c1.191-.86,1.768-2.055,1.373-2.841-.338-.677-1.378-.972-2.588-.731a1.545,1.545,0,0,1-1.235-.288,1.591,1.591,0,0,1-.625-1.142c-.027-.358-.041-.719-.041-1.084a14.293,14.293,0,0,1,.113-1.8,1.593,1.593,0,0,1,1.8-1.387c1.373.16,2.506-.274,2.77-1.069.232-.706-.256-1.606-1.243-2.29a1.522,1.522,0,0,1-.643-1.052,1.614,1.614,0,0,1,.349-1.245,14.01,14.01,0,0,1,2.205-2.158,1.566,1.566,0,0,1,1.188-.325,1.612,1.612,0,0,1,1.088.648c.853,1.15,2.031,1.7,2.8,1.314.7-.35.988-1.427.716-2.682a1.536,1.536,0,0,1,.26-1.222,1.612,1.612,0,0,1,1.135-.658,14.2,14.2,0,0,1,2.93,0,1.565,1.565,0,0,1,1.082.6,1.644,1.644,0,0,1,.322,1.239c-.207,1.415.235,2.634,1.05,2.9.751.252,1.742-.335,2.425-1.435a1.534,1.534,0,0,1,1.037-.7,1.637,1.637,0,0,1,1.285.321,14.047,14.047,0,0,1,2.294,2.276,1.576,1.576,0,0,1,.337,1.193,1.618,1.618,0,0,1-.641,1.1c-1.138.852-1.684,2.024-1.3,2.786.35.7,1.427.986,2.683.715a1.531,1.531,0,0,1,1.217.256,1.616,1.616,0,0,1,.661,1.134,14.038,14.038,0,0,1,.085,1.539c0,.474-.023.944-.068,1.4a1.555,1.555,0,0,1-.6,1.086,1.624,1.624,0,0,1-1.248.322c-1.419-.211-2.646.23-2.919,1.05-.25.76.354,1.765,1.47,2.443a1.537,1.537,0,0,1,.708,1.036,1.624,1.624,0,0,1-.314,1.288,13.848,13.848,0,0,1-2.7,2.625,1.6,1.6,0,0,1-2.234-.344c-.854-1.145-2.025-1.693-2.789-1.308-.664.332-.962,1.344-.746,2.52a1.547,1.547,0,0,1-.3,1.222,1.591,1.591,0,0,1-1.133.617Q969.444,914.289,968.873,914.289Zm-4.542-5.944a2.454,2.454,0,0,1,.764.121c1.386.465,2.17,2.106,1.953,4.084a.308.308,0,0,0,.265.352,13.077,13.077,0,0,0,2.587.05.289.289,0,0,0,.209-.113.257.257,0,0,0,.051-.2c-.327-1.776.237-3.312,1.437-3.912,1.347-.684,3.159.013,4.411,1.692a.306.306,0,0,0,.427.076,12.579,12.579,0,0,0,2.443-2.379.328.328,0,0,0,.062-.256.239.239,0,0,0-.106-.163c-1.66-1.009-2.475-2.6-2.028-3.956.478-1.445,2.261-2.231,4.341-1.925a.324.324,0,0,0,.259-.063.276.276,0,0,0,.106-.192c.04-.413.061-.839.061-1.27a12.714,12.714,0,0,0-.076-1.4.325.325,0,0,0-.13-.224.23.23,0,0,0-.186-.044c-1.87.408-3.488-.141-4.116-1.4-.676-1.342.014-3.155,1.679-4.4a.336.336,0,0,0,.135-.223.285.285,0,0,0-.065-.22,12.7,12.7,0,0,0-2.082-2.066.334.334,0,0,0-.259-.065.23.23,0,0,0-.162.1c-1.019,1.642-2.6,2.435-3.936,1.981-1.432-.468-2.226-2.244-1.921-4.317a.338.338,0,0,0-.063-.257.281.281,0,0,0-.193-.107,12.913,12.913,0,0,0-2.66,0,.312.312,0,0,0-.222.129.234.234,0,0,0-.044.188c.406,1.872-.144,3.487-1.4,4.114-1.356.687-3.175-.016-4.422-1.7a.327.327,0,0,0-.22-.135.282.282,0,0,0-.218.06,12.773,12.773,0,0,0-2,1.958.322.322,0,0,0-.069.244.245.245,0,0,0,.1.168c1.47,1.018,2.151,2.495,1.736,3.76-.468,1.411-2.133,2.2-4.156,1.948a.31.31,0,0,0-.354.266,12.983,12.983,0,0,0-.1,1.635q0,.5.038.985a.292.292,0,0,0,.116.209.268.268,0,0,0,.2.051c1.813-.364,3.386.2,4,1.419.694,1.379-.035,3.219-1.774,4.474a.327.327,0,0,0-.134.213.276.276,0,0,0,.054.214,12.759,12.759,0,0,0,2.273,2.358.311.311,0,0,0,.239.064.236.236,0,0,0,.166-.1A3.834,3.834,0,0,1,964.331,908.345Z" transform="translate(-954.869 -886.289)"/>
    </g>
    <g id="그룹_5208" data-name="그룹 5208" transform="translate(9.664 9.664)">
      <path id="패스_11223" data-name="패스 11223" d="M970.4,906.152a4.336,4.336,0,1,1,4.336-4.336A4.341,4.341,0,0,1,970.4,906.152Zm0-7.377a3.041,3.041,0,1,0,3.04,3.041A3.045,3.045,0,0,0,970.4,898.774Z" transform="translate(-966.063 -897.479)"/>
    </g>
  </g>
</svg>
