<svg id="share" xmlns="http://www.w3.org/2000/svg" width="18" height="18" viewBox="0 0 18 18">
  <path id="패스_11177" data-name="패스 11177" d="M640.961,190.537a.811.811,0,0,0-.86.75v5.378H625.541v-5.378a.868.868,0,0,0-1.72,0v6.128a.811.811,0,0,0,.86.75h16.28a.811.811,0,0,0,.86-.75v-6.128A.811.811,0,0,0,640.961,190.537Z" transform="translate(-623.821 -180.165)" fill="#999"/>
  <path id="패스_11178" data-name="패스 11178" d="M629.176,185.951a.751.751,0,0,0,.531-.219l1.215-1.216v9.835a.75.75,0,0,0,1.5,0v-9.939l1.217,1.216a.75.75,0,0,0,1.06-1.06l-2.445-2.445a.749.749,0,0,0-1.06,0l-2.548,2.548a.75.75,0,0,0,.53,1.28Z" transform="translate(-622.672 -181.903)" fill="#999"/>
</svg>
