<svg id="view_gallery" xmlns="http://www.w3.org/2000/svg" width="15.3" height="15.3" viewBox="0 0 15.3 15.3">
  <path id="패스_11167" data-name="패스 11167" d="M606.826,136.211h-5.8a.75.75,0,0,0-.75.75v5.8a.75.75,0,0,0,.75.75h5.8a.75.75,0,0,0,.75-.75v-5.8A.75.75,0,0,0,606.826,136.211Zm-.75,5.8h-4.3v-4.3h4.3Z" transform="translate(-600.276 -136.211)" fill="#999"/>
  <path id="패스_11168" data-name="패스 11168" d="M614.826,136.211h-5.8a.75.75,0,0,0-.75.75v5.8a.75.75,0,0,0,.75.75h5.8a.75.75,0,0,0,.75-.75v-5.8A.75.75,0,0,0,614.826,136.211Zm-.75,5.8h-4.3v-4.3h4.3Z" transform="translate(-600.276 -136.211)" fill="#999"/>
  <path id="패스_11169" data-name="패스 11169" d="M606.826,144.211h-5.8a.75.75,0,0,0-.75.75v5.8a.75.75,0,0,0,.75.75h5.8a.75.75,0,0,0,.75-.75v-5.8A.75.75,0,0,0,606.826,144.211Zm-.75,5.8h-4.3v-4.3h4.3Z" transform="translate(-600.276 -136.211)" fill="#999"/>
  <path id="패스_11170" data-name="패스 11170" d="M614.826,144.211h-5.8a.75.75,0,0,0-.75.75v5.8a.75.75,0,0,0,.75.75h5.8a.75.75,0,0,0,.75-.75v-5.8A.75.75,0,0,0,614.826,144.211Zm-.75,5.8h-4.3v-4.3h4.3Z" transform="translate(-600.276 -136.211)" fill="#999"/>
</svg>
