<svg xmlns="http://www.w3.org/2000/svg" width="25" height="25" viewBox="0 0 25 25">
    <path data-name="패스 11280" d="M610.124 1215.055h-1.4v-5.521a.635.635 0 0 0-.636-.635h-.691l-5.817-5.757a.636.636 0 0 0-.894 0l-2.307 2.283s0-.008-.008-.013l-2.119-2.1a.636.636 0 0 0-.9 0l-5.535 5.578H586.4a.636.636 0 0 0-.636.635v17.789a.636.636 0 0 0 .636.636h21.691a.635.635 0 0 0 .636-.636v-5.8h1.4a.636.636 0 0 0 .636-.636v-5.2a.636.636 0 0 0-.639-.623zm-8.994-10.567 4.458 4.41h-8.914zm-5.323.178 1.668 1.65-2.608 2.581h-3.259zm11.643 22.021h-20.419v-16.517H607.093c.017 0 .032.009.049.009s.032-.008.048-.009h.259v4.885h-6.2a2.616 2.616 0 0 0-2.613 2.613v1.243a2.616 2.616 0 0 0 2.613 2.614h6.2zm2.038-6.434h-1.378c-.008 0-.015-.005-.025-.005s-.015.005-.025.005h-6.809a1.344 1.344 0 0 1-1.341-1.342v-1.243a1.343 1.343 0 0 1 1.341-1.342h8.236z" transform="translate(-585.76 -1202.958)" style="fill:#fff"/>
    <ellipse data-name="타원 287" cx=".661" cy=".654" rx=".661" ry=".654" transform="translate(15.375 14.678)" style="fill:#fff"/>
</svg>
