<svg id="youtube_link" xmlns="http://www.w3.org/2000/svg" width="22.98" height="22.979" viewBox="0 0 22.98 22.979">
  <g id="그룹_5220" data-name="그룹 5220" transform="translate(-971.821 -968.454)">
    <g id="그룹_5219" data-name="그룹 5219">
      <path id="패스_11228" data-name="패스 11228" d="M994.051,991.433h-21.48a.75.75,0,0,1-.75-.75V969.2a.75.75,0,0,1,.75-.75h21.48a.75.75,0,0,1,.75.75v21.479A.75.75,0,0,1,994.051,991.433Zm-20.73-1.5H993.3V969.954h-19.98Z" fill="#fff"/>
    </g>
  </g>
  <g id="그룹_5229" data-name="그룹 5229" transform="translate(-971.821 -968.454)">
    <path id="패스_11233" data-name="패스 11233" d="M980.159,984.333a.749.749,0,0,1-.75-.75V976.3a.75.75,0,0,1,1.125-.649l6.3,3.639a.75.75,0,0,1,0,1.3l-6.3,3.64A.747.747,0,0,1,980.159,984.333Zm.75-6.73v4.681l4.054-2.34Z" fill="#fff"/>
  </g>
</svg>
